<svg width="0" height="0" class="hidden">
  <symbol fill="none" xmlns="http://www.w3.org/2000/svg" viewBox="0 0 69 56" id="Logo">
    <g clip-path="url(#clip0_25368_1340)">
      <path d="M39.15 16.8698L37.84 15.8698C37.6353 15.704 37.3734 15.6257 37.1112 15.6519C36.8491 15.6782 36.6079 15.8068 36.44 16.0098L18.31 36.8298L18.59 37.1398L23.08 32.9998C22.9304 32.9396 22.8066 32.8288 22.7301 32.6868C22.6536 32.5448 22.6293 32.3805 22.6614 32.2224C22.6935 32.0643 22.7799 31.9225 22.9057 31.8215C23.0315 31.7206 23.1887 31.6669 23.35 31.6698C23.4954 31.6698 23.637 31.7164 23.754 31.8028C23.871 31.8892 23.9572 32.0108 24 32.1498L29.92 26.6598C30.0107 26.5867 30.1236 26.5469 30.24 26.5469C30.3564 26.5469 30.4693 26.5867 30.56 26.6598L30.86 26.8798C30.9615 26.9525 31.0865 26.9847 31.2105 26.9699C31.3345 26.9551 31.4485 26.8944 31.53 26.7998L39.27 18.1198C39.3523 18.0336 39.415 17.9308 39.454 17.8182C39.493 17.7056 39.5072 17.5859 39.4958 17.4674C39.4845 17.3488 39.4477 17.234 39.388 17.1309C39.3283 17.0278 39.2472 16.9387 39.15 16.8698Z" fill="#303030"></path>
      <path d="M47.67 22.73C43.7025 25.553 39.2578 27.6364 34.55 28.88C29.8774 30.0683 25.0962 30.7786 20.28 31C20.377 31.7102 20.5513 32.4077 20.8 33.08C23.52 35.54 44 31.34 48 26.48C48.85 25.47 47.67 22.73 47.67 22.73ZM23.35 33C23.2155 33 23.084 32.9601 22.9722 32.8854C22.8604 32.8107 22.7732 32.7045 22.7218 32.5802C22.6703 32.4559 22.6568 32.3192 22.6831 32.1873C22.7093 32.0554 22.7741 31.9342 22.8692 31.8391C22.9643 31.744 23.0854 31.6793 23.2173 31.653C23.3492 31.6268 23.486 31.6403 23.6102 31.6917C23.7345 31.7432 23.8407 31.8304 23.9154 31.9422C23.9901 32.054 24.03 32.1855 24.03 32.32C24.0313 32.4097 24.0147 32.4987 23.981 32.5818C23.9473 32.6649 23.8973 32.7404 23.8338 32.8038C23.7704 32.8672 23.6949 32.9173 23.6118 32.951C23.5287 32.9847 23.4397 33.0013 23.35 33Z" fill="#303030"></path>
      <path d="M4 21.2899L4.16 20.5999L6.76 21.1899C6.9745 21.5861 7.10713 22.0214 7.15 22.4699C7.19963 22.945 7.16921 23.425 7.06 23.8899C6.93055 24.5352 6.63401 25.1352 6.2 25.6299C5.78709 26.097 5.25468 26.4428 4.66 26.6299C4.04709 26.8189 3.39521 26.8431 2.77 26.6999C2.14342 26.5646 1.56587 26.2603 1.1 25.8199C0.641271 25.3969 0.311867 24.8526 0.150002 24.2499C-0.029564 23.5954 -0.029564 22.9045 0.150002 22.2499C0.257479 21.76 0.450428 21.2929 0.720002 20.8699C0.975141 20.4853 1.31785 20.1665 1.72 19.9399L2.08 20.4899C1.73531 20.7016 1.43942 20.9839 1.21188 21.3183C0.984346 21.6527 0.830329 22.0316 0.760002 22.4299C0.635988 22.9473 0.646315 23.4877 0.790002 23.9999C0.924371 24.4863 1.1909 24.9259 1.56 25.2699C1.93938 25.6367 2.41403 25.8896 2.93 25.9999C3.43033 26.1404 3.95968 26.1404 4.46 25.9999C4.93929 25.8417 5.36977 25.5628 5.71 25.1899C6.05965 24.7873 6.3006 24.3019 6.41 23.7799C6.57453 23.1468 6.53249 22.4776 6.29 21.8699L4 21.2899Z" fill="#303030"></path>
      <path d="M9.66 15.0002L7.33 18.1102L8.33 19.9002L7.87 20.5202L4.17 13.7702L4.6 13.1802L12.13 14.8002L11.66 15.4202L9.66 15.0002ZM9 14.8402L5 13.9402L7 17.5302L9 14.8402Z" fill="#303030"></path>
      <path d="M9 8.5501L9.6 8.1001L13.41 13.2001L16.55 10.8501L16.93 11.3601L13.2 14.1501L9 8.5501Z" fill="#303030"></path>
      <path d="M15.3 4.38008L15.97 4.08008L18.61 9.86008L22.18 8.24008L22.44 8.82008L18.2 10.7501L15.3 4.38008Z" fill="#303030"></path>
      <path d="M28.48 6.67978L28.63 7.30978L23.81 8.43979L22.21 1.61979L26.89 0.529785L27.03 1.14979L23.03 2.07979L23.6 4.49979L27.12 3.66979L27.27 4.28979L23.74 5.10979L24.34 7.63978L28.48 6.67978Z" fill="#303030"></path>
      <path d="M35.35 6.93021L33.68 4.73021C33.4935 4.74053 33.3065 4.74053 33.12 4.73021L31.24 4.79021L31.31 7.01021H30.57L30.34 0.0102128L33 0.000212802C33.7521 -0.0692453 34.5042 0.132966 35.12 0.570213C35.3795 0.779207 35.5882 1.04442 35.7302 1.34585C35.8723 1.64727 35.944 1.97702 35.94 2.31021C35.9692 2.8044 35.8395 3.29497 35.57 3.71021C35.2826 4.10877 34.8766 4.40628 34.41 4.56021L36.16 6.90021L35.35 6.93021ZM34.65 3.64021C34.8297 3.47556 34.9692 3.27178 35.0576 3.04464C35.1461 2.81749 35.1811 2.57305 35.16 2.33021C35.1652 2.08608 35.1147 1.84398 35.0125 1.62222C34.9103 1.40046 34.759 1.20486 34.57 1.05021C34.1091 0.737692 33.5548 0.592951 33 0.640213L31.1 0.710213L31.22 4.21021L33.08 4.15021C33.6472 4.1712 34.2034 3.99051 34.65 3.64021Z" fill="#303030"></path>
      <path d="M40.64 5.07L40.28 7.46L39.55 7.35L39.92 5L37.85 0L38.63 0.12L40.4 4.38L43.4 0.85L44.1 1L40.64 5.07Z" fill="#303030"></path>
      <path d="M50.53 4.65018L51.4 5.78018L51.02 6.08018L50.15 4.92018L49.6 6.23018L49.18 6.05018L49.74 4.74018L48.3 4.93018V4.45018L49.72 4.29018L48.84 3.16018L49.23 2.86018L50 4.00018L50.54 2.68018L50.97 2.86018L50.46 4.20018L51.9 4.00018V4.49018L50.53 4.65018Z" fill="#303030"></path>
      <path d="M53.87 12.7099C53.6339 12.3458 53.4866 11.9314 53.44 11.4999L54.03 11.2399C54.0743 11.6363 54.2039 12.0184 54.41 12.3599C54.6334 12.7428 54.9248 13.0817 55.27 13.3599C55.6264 13.7012 56.0813 13.9216 56.57 13.9899C56.7466 14.0063 56.9245 13.9793 57.0883 13.9114C57.2521 13.8434 57.3969 13.7365 57.51 13.5999C57.5929 13.5084 57.6562 13.4008 57.6957 13.2838C57.7353 13.1669 57.7504 13.043 57.74 12.9199C57.7069 12.6762 57.6253 12.4416 57.5 12.2299C57.3121 11.923 57.1085 11.6259 56.89 11.3399C56.6238 10.9911 56.3831 10.6235 56.17 10.2399C56.0071 9.95284 55.9178 9.6299 55.91 9.29992C55.9093 8.92934 56.0486 8.57218 56.3 8.29992C56.5179 8.03604 56.8055 7.83857 57.13 7.72992C57.4926 7.62518 57.8774 7.62518 58.24 7.72992C58.7072 7.88269 59.139 8.12751 59.51 8.44992C59.8179 8.70599 60.0903 9.00192 60.32 9.32992C60.5324 9.63408 60.6914 9.97227 60.79 10.3299L60.22 10.6299C60.1206 10.2966 59.9723 9.97979 59.78 9.68992C59.5884 9.43106 59.3631 9.199 59.11 8.99992C58.7589 8.66016 58.3054 8.44575 57.82 8.38992C57.6416 8.375 57.4623 8.40466 57.2982 8.47623C57.1342 8.5478 56.9904 8.65903 56.88 8.79992C56.7949 8.89 56.7304 8.99741 56.6907 9.11477C56.651 9.23214 56.6371 9.35669 56.65 9.47992C56.6734 9.73209 56.7556 9.97526 56.89 10.1899C57.03 10.4199 57.23 10.7199 57.5 11.0799C57.7677 11.4207 58.0084 11.7818 58.22 12.1599C58.3864 12.4461 58.4792 12.7691 58.49 13.0999C58.4907 13.4705 58.3514 13.8277 58.1 14.0999C57.8813 14.3674 57.5894 14.5655 57.26 14.6699C56.8981 14.7792 56.5119 14.7792 56.15 14.6699C55.6796 14.5176 55.2444 14.2728 54.87 13.9499C54.4663 13.5986 54.1278 13.1788 53.87 12.7099Z" fill="#303030"></path>
      <path d="M63.93 14.1698L62.52 12.1698L63.04 11.7998L66.29 16.4398L65.77 16.8098L64.36 14.8098L59.14 18.4598L58.72 17.8498L63.93 14.1698Z" fill="#303030"></path>
      <path d="M61.69 22.39C61.8685 21.7856 62.2154 21.2445 62.69 20.83C63.1543 20.4141 63.7199 20.1279 64.33 20C64.9519 19.8572 65.6005 19.8814 66.21 20.07C66.7983 20.2645 67.3257 20.6092 67.74 21.07C68.1708 21.5656 68.4639 22.1656 68.59 22.81C68.7556 23.4426 68.7556 24.1073 68.59 24.74C68.4066 25.3421 68.0605 25.8819 67.59 26.3C67.1128 26.727 66.5333 27.0233 65.9077 27.16C65.2821 27.2967 64.6318 27.2691 64.02 27.08C63.4272 26.8949 62.8974 26.5487 62.49 26.08C62.0612 25.587 61.7682 24.9907 61.64 24.35C61.4872 23.7033 61.5045 23.028 61.69 22.39ZM63 25.57C63.3339 25.9502 63.7665 26.2306 64.25 26.38C64.7483 26.5245 65.275 26.5417 65.7816 26.4298C66.2883 26.318 66.7588 26.0808 67.15 25.74C67.5191 25.4004 67.7917 24.9691 67.94 24.49C68.0794 23.9841 68.0931 23.4517 67.9798 22.9393C67.8665 22.4269 67.6297 21.95 67.29 21.55C66.9415 21.1679 66.4955 20.8879 66 20.74C65.4954 20.606 64.9646 20.606 64.46 20.74C63.9509 20.8377 63.4795 21.0768 63.1 21.43C62.7275 21.7708 62.4545 22.2062 62.31 22.69C62.1742 23.1977 62.1742 23.7322 62.31 24.24C62.4195 24.7361 62.6575 25.1947 63 25.57Z" fill="#303030"></path>
      <path d="M60.93 33.9999L63.52 32.9999C63.52 32.8199 63.58 32.6399 63.63 32.4499L64.12 30.6399L62 30.0899L62.19 29.3799L68.95 31.1899L68.27 33.7199C68.1168 34.4581 67.7056 35.1176 67.11 35.5799C66.8364 35.7699 66.5224 35.8941 66.1928 35.9427C65.8632 35.9912 65.5268 35.9629 65.21 35.8599C64.7274 35.7552 64.295 35.4891 63.9841 35.1055C63.6732 34.7219 63.5024 34.2437 63.5 33.7499L60.74 34.7499L60.93 33.9999ZM64.28 34.2799C64.3972 34.4924 64.5561 34.679 64.7472 34.8286C64.9383 34.9781 65.1577 35.0875 65.3921 35.1501C65.6266 35.2126 65.8713 35.2272 66.1115 35.1928C66.3517 35.1584 66.5825 35.0758 66.79 34.9499C67.2314 34.5954 67.5326 34.0957 67.64 33.5399L68.12 31.7399L64.73 30.8299L64.25 32.6299C64.0655 33.1663 64.0761 33.7506 64.28 34.2799Z" fill="#303030"></path>
      <path d="M57.34 40.4401L56.83 40.0501L59.83 36.1001L65.41 40.3301L62.51 44.1601L62 43.7701L64.45 40.5401L62.45 39.0301L60.26 41.9201L59.76 41.5401L62 38.6501L59.93 37.0801L57.34 40.4401Z" fill="#303030"></path>
      <path d="M55 48.4099L53.57 48.4899V48.0099L55 47.9999L54.23 46.8099L54.62 46.5599L55.38 47.7599L56 46.4199L56.43 46.6499L55.75 47.9099L57.18 47.8299V48.3199H55.73L56.5 49.5099L56.11 49.7599L55.35 48.5599L54.69 49.8599L54.27 49.6199L55 48.4099Z" fill="#303030"></path>
      <path d="M42 47.6099L43.21 48.2799C43.4129 47.8902 43.696 47.5479 44.0407 47.2756C44.3854 47.0033 44.784 46.8071 45.21 46.6999C45.6074 46.576 46.0254 46.5318 46.44 46.5699C46.7997 46.5975 47.1452 46.7219 47.44 46.9299C47.7065 47.1308 47.9025 47.4108 48 47.7299C48.1205 48.1247 48.0993 48.5491 47.94 48.9299C47.6891 49.4473 47.3508 49.9175 46.94 50.3199C47.2697 50.4971 47.5755 50.7155 47.85 50.9699C48.0386 51.1648 48.179 51.4011 48.26 51.6599C48.3113 51.8617 48.3144 52.0726 48.2693 52.2759C48.2241 52.4791 48.1319 52.6688 48 52.8299C47.733 53.2146 47.3347 53.4884 46.88 53.5999C46.4807 53.7522 46.0393 53.7522 45.64 53.5999C45.4624 53.5235 45.305 53.407 45.1801 53.2596C45.0552 53.1121 44.9661 52.9376 44.92 52.7499C44.8152 52.4198 44.8402 52.0622 44.99 51.7499C45.2195 51.2953 45.52 50.8801 45.88 50.5199L43.47 49.1799C43.378 49.6508 43.3578 50.1329 43.41 50.6099H42.8C42.7589 50.0225 42.8267 49.4326 43 48.8699L41.74 48.1699L42 47.6099ZM43.74 48.6099L46.39 50.0799C46.7373 49.7483 47.0248 49.3592 47.24 48.9299C47.3499 48.64 47.3499 48.3199 47.24 48.0299C47.1947 47.8567 47.1069 47.6974 46.9847 47.5665C46.8625 47.4356 46.7097 47.3371 46.54 47.2799C46.1249 47.1397 45.6751 47.1397 45.26 47.2799C44.9208 47.3694 44.6053 47.5322 44.3357 47.7568C44.0662 47.9814 43.8492 48.2624 43.7 48.5799L43.74 48.6099ZM47.5 52.6099C47.5653 52.4994 47.6063 52.3762 47.6201 52.2486C47.6339 52.1209 47.6202 51.9918 47.58 51.8699C47.5187 51.6724 47.4087 51.4936 47.26 51.3499C47.0055 51.1352 46.7269 50.9506 46.43 50.7999C46.1268 51.0997 45.8615 51.4356 45.64 51.7999C45.5191 52.0271 45.4905 52.2921 45.56 52.5399C45.5917 52.6543 45.6473 52.7607 45.7232 52.8521C45.799 52.9434 45.8934 53.0177 46 53.0699C46.2546 53.1659 46.5354 53.1659 46.79 53.0699C47.0619 52.9974 47.2993 52.8309 47.46 52.5999L47.5 52.6099Z" fill="#303030"></path>
      <path d="M29.81 55.3198L29.95 48.3198H30.66L30.55 53.9198L33.39 49.2598H33.74L36.4 53.9998L36.5 48.4298H37.21L37.08 55.4298H36.47L33.53 50.1998L30.42 55.3298L29.81 55.3198Z" fill="#303030"></path>
      <path d="M26.33 48.0001C26.7873 48.4359 27.1145 48.9902 27.2752 49.6012C27.4359 50.2121 27.4237 50.8557 27.24 51.4601C27.0757 52.079 26.7475 52.6421 26.29 53.0901C25.8454 53.5271 25.2879 53.8318 24.68 53.9701C24.0387 54.1148 23.3711 54.0941 22.74 53.9101C22.111 53.7565 21.5323 53.443 21.06 53.0001C20.6095 52.5698 20.2875 52.0228 20.13 51.4201C19.9762 50.7971 19.9876 50.1447 20.1629 49.5274C20.3383 48.9101 20.6716 48.3492 21.13 47.9001C21.5667 47.4642 22.1123 47.1534 22.71 47.0001C23.348 46.8558 24.0122 46.8765 24.64 47.0601C25.2755 47.2212 25.858 47.5452 26.33 48.0001ZM22.92 47.6501C22.4308 47.764 21.9837 48.0135 21.63 48.3701C21.2616 48.737 20.9991 49.1965 20.87 49.7001C20.7305 50.2006 20.7305 50.7296 20.87 51.2301C20.9879 51.717 21.241 52.1607 21.6 52.5101C21.9765 52.8783 22.4414 53.1435 22.95 53.2801C23.4585 53.4096 23.9915 53.4096 24.5 53.2801C24.9896 53.1597 25.4383 52.9112 25.8 52.5601C26.1664 52.1917 26.4286 51.7328 26.56 51.2301C26.6998 50.7263 26.6998 50.1939 26.56 49.6901C26.432 49.205 26.1765 48.7631 25.82 48.4101C25.4415 48.0414 24.9723 47.7792 24.46 47.6501C23.9561 47.5108 23.4239 47.5108 22.92 47.6501Z" fill="#303030"></path>
      <path d="M15.35 43L15.62 45.75C15.7915 45.8233 15.9585 45.9068 16.12 46L17.75 46.94L18.85 45L19.5 45.37L16 51.4L13.72 50.09C13.0461 49.7515 12.5144 49.1844 12.22 48.49C12.1113 48.1772 12.0746 47.8439 12.1127 47.5149C12.1508 47.1859 12.2627 46.8698 12.44 46.59C12.6724 46.1518 13.0409 45.8008 13.49 45.59C13.9461 45.4011 14.4505 45.3626 14.93 45.48L14.64 42.54L15.35 43ZM14.21 46.16C13.9751 46.219 13.7546 46.3247 13.5615 46.4708C13.3684 46.617 13.2069 46.8006 13.0864 47.0107C12.966 47.2207 12.8892 47.4529 12.8606 47.6934C12.832 47.9338 12.8522 48.1776 12.92 48.41C13.1544 48.9276 13.5607 49.3481 14.07 49.6L15.68 50.53L17.43 47.53L15.82 46.6C15.3572 46.2533 14.7875 46.0799 14.21 46.11V46.16Z" fill="#303030"></path>
      <path d="M9.43 38.3099L9.88 37.8599L13.33 41.4099L8.33 46.2899L5 42.8499L5.46 42.3999L8.29 45.3099L10 43.5799L7.52 40.9999L8 40.5399L10.53 43.1399L12.39 41.3299L9.43 38.3099Z" fill="#303030"></path>
      <path d="M2 34.38L2.24 33L2.71 33.07L2.44 34.49L3.77 34L3.93 34.44L2.58 34.9L3.69 35.84L3.37 36.2L2.3 35.2L2.05 36.62L1.57 36.53L1.85 35.11L0.510001 35.59L0.360001 35.2L1.7 34.73L0.590001 33.8L0.920001 33.44L2 34.38Z" fill="#303030"></path>
    </g>
    <defs>
      <clipPath id="clip0_25368_1340">
        <rect width="68.93" height="55.46" fill="white"></rect>
      </clipPath>
    </defs>
  </symbol>
  <symbol fill="none" xmlns="http://www.w3.org/2000/svg" viewBox="0 0 44 44" id="linkedin">
    <path d="M44 22C44 28.0751 41.5376 33.5751 37.5564 37.5564C33.5751 41.5376 28.0751 44 22 44C15.9249 44 10.4249 41.5376 6.44365 37.5564C2.46243 33.5751 0 28.0751 0 22C0 15.9249 2.46243 10.4249 6.44365 6.44365C10.4249 2.46243 15.9249 0 22 0C28.0751 0 33.5751 2.46243 37.5564 6.44365C41.5376 10.4249 44 15.9249 44 22Z" fill="white"></path>
    <g clip-path="url(#clip0_25368_1519)">
      <path d="M31.995 32.0001V31.9993H32V24.6643C32 21.0759 31.2275 18.3118 27.0325 18.3118C25.0158 18.3118 23.6625 19.4184 23.11 20.4676H23.0517V18.6468H19.0742V31.9993H23.2158V25.3876C23.2158 23.6468 23.5458 21.9634 25.7017 21.9634C27.8258 21.9634 27.8575 23.9501 27.8575 25.4993V32.0001H31.995Z" fill="#303030"></path>
      <path d="M12.33 18.6475H16.4767V32H12.33V18.6475Z" fill="#303030"></path>
      <path d="M14.4017 12C13.0758 12 12 13.0758 12 14.4017C12 15.7275 13.0758 16.8258 14.4017 16.8258C15.7275 16.8258 16.8033 15.7275 16.8033 14.4017C16.8025 13.0758 15.7267 12 14.4017 12V12Z" fill="#303030"></path>
    </g>
    <defs>
      <clipPath id="clip0_25368_1519">
        <rect width="20" height="20" fill="white" transform="translate(12 12)"></rect>
      </clipPath>
    </defs>
  </symbol>
  <symbol fill="none" xmlns="http://www.w3.org/2000/svg" viewBox="0 0 44 44" id="fb">
    <path d="M44 22C44 28.0751 41.5376 33.5751 37.5564 37.5564C33.5751 41.5376 28.0751 44 22 44C15.9249 44 10.4249 41.5376 6.44365 37.5564C2.46243 33.5751 0 28.0751 0 22C0 15.9249 2.46243 10.4249 6.44365 6.44365C10.4249 2.46243 15.9249 0 22 0C28.0751 0 33.5751 2.46243 37.5564 6.44365C41.5376 10.4249 44 15.9249 44 22Z" fill="white"></path>
    <g clip-path="url(#clip0_25368_1525)">
      <path d="M25.3308 15.3208H27.1567V12.1408C26.8417 12.0975 25.7583 12 24.4967 12C21.8642 12 20.0608 13.6558 20.0608 16.6992V19.5H17.1558V23.055H20.0608V32H23.6225V23.0558H26.41L26.8525 19.5008H23.6217V17.0517C23.6225 16.0242 23.8992 15.3208 25.3308 15.3208Z" fill="#303030"></path>
    </g>
    <defs>
      <clipPath id="clip0_25368_1525">
        <rect width="20" height="20" fill="white" transform="translate(12 12)"></rect>
      </clipPath>
    </defs>
  </symbol>
  <symbol fill="none" xmlns="http://www.w3.org/2000/svg" viewBox="0 0 44 44" id="twitter">
    <path d="M44 22C44 28.0751 41.5376 33.5751 37.5564 37.5564C33.5751 41.5376 28.0751 44 22 44C15.9249 44 10.4249 41.5376 6.44365 37.5564C2.46243 33.5751 0 28.0751 0 22C0 15.9249 2.46243 10.4249 6.44365 6.44365C10.4249 2.46243 15.9249 0 22 0C28.0751 0 33.5751 2.46243 37.5564 6.44365C41.5376 10.4249 44 15.9249 44 22Z" fill="white"></path>
    <g clip-path="url(#clip0_25368_1529)">
      <path d="M32 15.7988C31.2563 16.125 30.4637 16.3412 29.6375 16.4462C30.4875 15.9388 31.1363 15.1412 31.4412 14.18C30.6488 14.6525 29.7738 14.9863 28.8412 15.1725C28.0887 14.3713 27.0162 13.875 25.8462 13.875C23.5763 13.875 21.7487 15.7175 21.7487 17.9763C21.7487 18.3012 21.7762 18.6137 21.8438 18.9112C18.435 18.745 15.4188 17.1113 13.3925 14.6225C13.0387 15.2363 12.8313 15.9388 12.8313 16.695C12.8313 18.115 13.5625 19.3737 14.6525 20.1025C13.9937 20.09 13.3475 19.8988 12.8 19.5975C12.8 19.61 12.8 19.6262 12.8 19.6425C12.8 21.635 14.2212 23.29 16.085 23.6712C15.7512 23.7625 15.3875 23.8062 15.01 23.8062C14.7475 23.8062 14.4825 23.7913 14.2337 23.7362C14.765 25.36 16.2725 26.5538 18.065 26.5925C16.67 27.6838 14.8988 28.3412 12.9813 28.3412C12.645 28.3412 12.3225 28.3263 12 28.285C13.8162 29.4563 15.9688 30.125 18.29 30.125C25.835 30.125 29.96 23.875 29.96 18.4575C29.96 18.2762 29.9538 18.1013 29.945 17.9275C30.7588 17.35 31.4425 16.6288 32 15.7988Z" fill="#303030"></path>
    </g>
    <defs>
      <clipPath id="clip0_25368_1529">
        <rect width="20" height="20" fill="white" transform="translate(12 12)"></rect>
      </clipPath>
    </defs>
  </symbol>
  <symbol fill="none" xmlns="http://www.w3.org/2000/svg" viewBox="0 0 44 44" id="insta">
    <path d="M44 22C44 28.0751 41.5376 33.5751 37.5564 37.5564C33.5751 41.5376 28.0751 44 22 44C15.9249 44 10.4249 41.5376 6.44365 37.5564C2.46243 33.5751 0 28.0751 0 22C0 15.9249 2.46243 10.4249 6.44365 6.44365C10.4249 2.46243 15.9249 0 22 0C28.0751 0 33.5751 2.46243 37.5564 6.44365C41.5376 10.4249 44 15.9249 44 22Z" fill="white"></path>
    <g clip-path="url(#clip0_25368_1535)">
      <path d="M31.9804 17.8801C31.9336 16.8174 31.7617 16.0868 31.5155 15.4537C31.2616 14.7818 30.8709 14.1801 30.359 13.68C29.8589 13.1721 29.2533 12.7774 28.5891 12.5274C27.9524 12.2813 27.2256 12.1094 26.1629 12.0626C25.0923 12.0118 24.7524 12 22.0371 12C19.3217 12 18.9818 12.0118 17.9152 12.0586C16.8525 12.1055 16.1219 12.2775 15.489 12.5235C14.8169 12.7774 14.2153 13.1681 13.7151 13.68C13.2072 14.1801 12.8127 14.7857 12.5626 15.4499C12.3164 16.0868 12.1446 16.8134 12.0977 17.8761C12.0469 18.9467 12.0351 19.2866 12.0351 22.002C12.0351 24.7173 12.0469 25.0572 12.0937 26.1239C12.1406 27.1865 12.3126 27.9171 12.5588 28.5502C12.8127 29.2221 13.2072 29.8238 13.7151 30.3239C14.2153 30.8318 14.8209 31.2265 15.485 31.4765C16.1219 31.7226 16.8485 31.8945 17.9114 31.9413C18.9779 31.9883 19.3179 31.9999 22.0333 31.9999C24.7486 31.9999 25.0885 31.9883 26.1552 31.9413C27.2178 31.8945 27.9484 31.7226 28.5813 31.4765C29.9254 30.9568 30.9881 29.8941 31.5078 28.5502C31.7538 27.9133 31.9258 27.1865 31.9726 26.1239C32.0195 25.0572 32.0312 24.7173 32.0312 22.002C32.0312 19.2866 32.0273 18.9467 31.9804 17.8801ZM30.1794 26.0457C30.1363 27.0225 29.9723 27.5499 29.8355 27.9015C29.4995 28.7728 28.8079 29.4643 27.9367 29.8004C27.585 29.9372 27.0538 30.1012 26.0808 30.1441C25.0259 30.1911 24.7096 30.2027 22.041 30.2027C19.3725 30.2027 19.0522 30.1911 18.0011 30.1441C17.0243 30.1012 16.4969 29.9372 16.1453 29.8004C15.7117 29.6402 15.317 29.3862 14.9967 29.0541C14.6646 28.7298 14.4106 28.3391 14.2504 27.9055C14.1136 27.5539 13.9496 27.0225 13.9067 26.0497C13.8597 24.9948 13.8481 24.6783 13.8481 22.0097C13.8481 19.3412 13.8597 19.0209 13.9067 17.9699C13.9496 16.9932 14.1136 16.4657 14.2504 16.1141C14.4106 15.6804 14.6646 15.2859 15.0006 14.9654C15.3248 14.6333 15.7155 14.3793 16.1492 14.2192C16.5009 14.0825 17.0323 13.9184 18.0051 13.8754C19.06 13.8285 19.3765 13.8168 22.0449 13.8168C24.7173 13.8168 25.0337 13.8285 26.0848 13.8754C27.0615 13.9184 27.589 14.0825 27.9406 14.2192C28.3742 14.3793 28.7689 14.6333 29.0892 14.9654C29.4213 15.2897 29.6753 15.6804 29.8355 16.1141C29.9723 16.4657 30.1363 16.997 30.1794 17.9699C30.2262 19.0248 30.238 19.3412 30.238 22.0097C30.238 24.6783 30.2262 24.9908 30.1794 26.0457Z" fill="#FF6C00"></path>
      <path d="M22.0371 16.8643C19.2007 16.8643 16.8994 19.1654 16.8994 22.002C16.8994 24.8385 19.2007 27.1397 22.0371 27.1397C24.8736 27.1397 27.1748 24.8385 27.1748 22.002C27.1748 19.1654 24.8736 16.8643 22.0371 16.8643ZM22.0371 25.3347C20.197 25.3347 18.7044 23.8422 18.7044 22.002C18.7044 20.1617 20.197 18.6693 22.0371 18.6693C23.8774 18.6693 25.3698 20.1617 25.3698 22.002C25.3698 23.8422 23.8774 25.3347 22.0371 25.3347Z" fill="#FF6C00"></path>
      <path d="M28.5775 16.6611C28.5775 17.3235 28.0405 17.8605 27.378 17.8605C26.7156 17.8605 26.1785 17.3235 26.1785 16.6611C26.1785 15.9986 26.7156 15.4617 27.378 15.4617C28.0405 15.4617 28.5775 15.9986 28.5775 16.6611Z" fill="#FF6C00"></path>
    </g>
    <defs>
      <clipPath id="clip0_25368_1535">
        <rect width="20" height="20" fill="white" transform="translate(12 12)"></rect>
      </clipPath>
    </defs>
  </symbol>
  <symbol fill="none" xmlns="http://www.w3.org/2000/svg" viewBox="0 0 60 1" id="rectangle">
    <rect x="60" width="1" height="60" transform="rotate(90 60 0)" fill="#9DA4BD" fill-opacity="0.6"></rect>
  </symbol>
</svg>